<?xml version="1.0" standalone="no"?>
<!DOCTYPE svg PUBLIC "-//W3C//DTD SVG 20010904//EN"
 "http://www.w3.org/TR/2001/REC-SVG-20010904/DTD/svg10.dtd">
<svg version="1.0" xmlns="http://www.w3.org/2000/svg"
 width="400.000000pt" height="400.000000pt" viewBox="0 0 400.000000 400.000000"
 preserveAspectRatio="xMidYMid meet">

<g transform="translate(0.000000,400.000000) scale(0.100000,-0.100000)"
fill="#000000" stroke="none">
<path d="M3383 3298 c-141 -141 -142 -142 -153 -116 -7 14 -22 30 -34 36 -18
8 -914 20 -1009 13 -9 0 -26 -16 -37 -33 -19 -31 -20 -52 -20 -396 l0 -363
-132 3 -133 3 -3 288 -2 287 -303 0 -303 0 -72 -73 -72 -72 0 -217 0 -217
-186 -3 -186 -3 -34 -37 -34 -38 0 -511 0 -512 -55 -58 c-30 -32 -55 -63 -55
-71 0 -7 24 -27 53 -43 35 -21 53 -38 55 -54 7 -44 -12 -44 -133 3 -65 25
-122 43 -126 40 -25 -15 -40 -185 -20 -223 9 -16 19 -15 143 16 l133 33 17
-23 c10 -12 18 -25 18 -28 0 -4 -26 -17 -58 -29 -31 -13 -69 -29 -85 -37 l-27
-14 20 -40 c26 -50 78 -108 129 -143 46 -32 141 -70 141 -56 0 6 -8 10 -17 10
-24 1 -113 48 -151 81 -38 33 -102 117 -102 133 0 11 329 156 354 156 4 0 73
-57 152 -126 120 -105 142 -129 132 -141 -23 -28 -99 -75 -151 -93 -29 -10
-44 -19 -33 -19 35 -2 150 62 195 108 25 25 60 74 76 108 l30 63 123 0 122 0
-14 -33 c-94 -221 -116 -279 -116 -301 0 -38 23 -87 55 -116 l27 -25 291 -3
c161 -1 420 2 577 6 l285 9 -192 1 c-182 2 -193 3 -193 21 0 27 -18 31 -136
31 -177 0 -181 10 -84 230 38 88 70 165 70 170 0 6 94 10 260 10 l260 0 0 -48
c0 -112 80 -198 194 -209 221 -21 398 246 536 806 31 125 34 132 46 109 23
-44 68 -46 83 -4 11 30 -60 226 -88 245 -21 14 -27 10 -112 -76 -90 -92 -103
-118 -74 -147 17 -16 39 -12 68 12 23 20 23 19 -18 -143 -114 -448 -266 -715
-409 -715 -38 0 -100 27 -114 51 -7 11 -16 43 -19 70 l-6 49 53 0 c28 0 68 7
87 16 69 34 67 21 73 499 l5 430 122 3 c173 4 163 -14 163 296 0 181 4 255 15
296 16 61 19 164 6 225 -5 22 -12 99 -16 170 l-6 130 189 195 c104 107 191
205 194 217 8 32 -26 73 -60 73 -21 0 -57 -30 -169 -142z m187 123 c0 -12 -44
-42 -85 -60 -30 -12 -29 -12 10 28 36 38 75 54 75 32z m30 -39 c-1 -30 -161
-122 -212 -122 -21 0 -21 1 8 31 16 17 61 45 100 63 39 19 74 39 78 45 10 15
26 4 26 -17z m-55 -92 c-22 -22 -45 -40 -52 -40 -6 0 -57 -23 -113 -51 -55
-29 -104 -49 -107 -45 -4 3 13 27 37 51 36 36 51 45 80 45 38 0 96 24 150 63
49 35 51 24 5 -23z m-345 -90 c32 -32 25 -61 -31 -115 -28 -28 -61 -71 -75
-97 l-24 -46 -75 38 c-41 22 -98 43 -127 47 -53 8 -53 8 37 14 60 3 25 5 -105
5 -107 0 -163 -2 -125 -5 l70 -6 -50 -8 c-56 -8 -158 -53 -209 -92 -38 -29
-46 -31 -46 -10 0 13 -15 15 -92 13 l-93 -3 -3 -402 -2 -403 145 0 c130 0 153
-3 222 -26 163 -55 333 -27 466 78 42 33 127 142 127 161 0 7 -15 -11 -34 -38
-139 -207 -381 -275 -604 -170 -255 120 -341 445 -181 685 47 69 116 126 204
167 49 22 78 28 156 31 156 7 265 -35 363 -138 116 -121 160 -280 121 -435
-12 -46 -15 -117 -15 -307 1 -236 0 -248 -19 -267 -21 -21 -30 -21 -460 -21
l-439 0 -81 -86 c-45 -48 -83 -85 -84 -83 -1 2 0 340 3 750 5 717 6 748 24
768 19 21 24 21 518 21 485 0 499 -1 518 -20z m250 -5 c-12 -13 -45 -32 -72
-41 -27 -9 -62 -27 -79 -41 -33 -28 -69 -91 -69 -121 0 -28 -24 -46 -38 -29
-9 10 -7 19 5 37 9 13 24 51 34 84 15 57 18 61 43 58 15 -2 42 6 62 18 96 60
154 78 114 35z m-60 -58 c0 -1 -31 -34 -70 -72 -57 -56 -70 -65 -70 -48 0 26
43 79 85 104 26 16 55 25 55 16z m-189 -102 c-11 -25 -25 -45 -30 -45 -6 0
-11 3 -11 8 1 17 27 81 40 97 24 29 25 -6 1 -60z m-46 -4 c-3 -6 -11 -11 -17
-11 -6 0 -6 6 2 15 14 17 26 13 15 -4z m-1305 -533 l-1 -513 -72 78 -72 77
-292 0 -293 0 0 365 0 365 53 0 c79 0 96 8 102 44 4 17 2 43 -4 58 -5 14 -7
29 -4 32 4 3 136 6 295 6 l288 0 0 -512z m-586 470 c12 -48 8 -51 -99 -73 -29
-6 -28 -4 23 44 29 28 57 51 62 51 4 0 10 -10 14 -22z m1956 -119 l0 -90 -46
66 c-25 37 -44 68 -42 69 29 20 75 46 81 46 4 0 7 -41 7 -91z m-790 61 c0 -11
-15 -39 -33 -62 -17 -24 -46 -72 -62 -108 -28 -61 -30 -73 -30 -185 0 -112 2
-124 30 -185 16 -36 45 -84 62 -108 25 -31 33 -52 33 -82 l0 -40 -85 0 -85 0
0 388 c0 214 3 392 7 395 3 4 42 7 85 7 71 0 78 -2 78 -20z m-1637 -502 c-43
-48 -43 -48 -43 -550 l0 -484 -35 -17 -35 -17 0 501 c0 427 2 504 15 529 17
33 58 59 94 60 l24 0 -20 -22z m317 -138 c0 -5 -20 -10 -45 -10 l-46 0 3 -67
3 -68 165 -2 c91 0 247 -2 348 -2 114 -1 182 -5 182 -11 0 -6 -67 -10 -180
-10 l-181 0 3 -67 3 -68 350 -2 c193 -1 365 -3 383 -3 17 0 32 -4 32 -10 0 -6
-135 -10 -385 -10 l-385 0 0 -65 0 -65 380 0 c331 0 380 -2 380 -15 0 -13 -49
-15 -380 -15 l-380 0 0 -65 0 -65 473 2 472 3 0 60 c0 59 -1 60 -30 65 l-30 6
33 17 c17 10 32 22 32 27 0 6 5 10 10 10 6 0 10 -7 10 -15 0 -12 16 -15 80
-15 64 0 80 3 80 15 0 8 5 15 10 15 6 0 13 -7 16 -15 5 -11 23 -15 79 -15 56
0 74 4 79 15 3 8 10 15 16 15 6 0 10 -37 10 -96 0 -85 -2 -95 -15 -84 -10 8
-15 31 -15 66 l0 54 -75 0 -75 0 0 -49 c0 -34 -4 -51 -15 -55 -12 -4 -15 5
-15 50 l0 55 -77 -3 -78 -3 -3 -62 -3 -63 46 0 c71 0 58 -21 -20 -32 -13 -2
-21 -12 -23 -31 -4 -35 -20 -35 -24 1 l-3 27 -472 3 -473 2 0 -65 0 -65 441 0
c348 0 440 -3 437 -12 -4 -10 -137 -14 -611 -16 l-607 -2 0 -30 c0 -20 -5 -30
-15 -30 -13 0 -15 56 -15 440 l0 440 60 0 c33 0 60 -4 60 -10z m1020 0 c0 -6
-52 -10 -135 -10 -83 0 -135 4 -135 10 0 6 52 10 135 10 83 0 135 -4 135 -10z
m385 -120 c3 -5 -1 -10 -9 -10 -9 0 -16 5 -16 10 0 6 4 10 9 10 6 0 13 -4 16
-10z m-385 -40 c0 -6 -52 -10 -135 -10 -83 0 -135 4 -135 10 0 6 52 10 135 10
83 0 135 -4 135 -10z m1293 -357 c26 -52 69 -194 63 -209 -12 -32 -50 -11 -67
36 l-17 45 -10 -40 c-6 -22 -25 -96 -42 -164 -115 -461 -258 -718 -427 -767
-123 -36 -238 29 -263 149 -15 73 -8 133 37 347 60 285 49 388 -47 438 -24 12
-58 22 -75 22 -75 0 -216 -100 -295 -208 -36 -50 -50 -62 -72 -62 -15 0 -29 3
-31 8 -9 13 67 115 136 184 47 46 93 80 142 104 66 33 80 36 134 32 82 -6 146
-46 180 -113 39 -75 35 -207 -13 -428 -53 -247 -49 -361 16 -395 92 -48 149
-35 238 56 76 78 134 188 200 377 43 126 132 456 124 464 -2 3 -19 -10 -37
-27 -18 -18 -40 -32 -49 -32 -24 0 -31 30 -11 54 45 55 149 156 160 156 7 0
19 -12 26 -27z m-903 -218 l0 -45 75 0 75 0 0 30 c0 32 14 40 24 14 3 -9 6
-65 6 -125 l0 -109 -691 0 -690 0 7 23 c4 12 11 33 17 47 l11 25 4 -33 3 -32
472 2 472 3 3 40 c5 62 22 67 22 7 l0 -52 80 0 80 0 0 65 0 65 -72 0 c-66 1
-71 2 -54 15 12 9 42 15 73 15 l53 0 0 38 c0 21 3 42 7 45 16 16 23 4 23 -38z
m-1170 -97 c0 -7 -19 -69 -41 -137 l-41 -123 17 -58 c13 -43 16 -80 13 -144
-4 -73 -10 -96 -39 -153 -19 -38 -40 -68 -48 -68 -7 0 -77 55 -155 123 l-141
123 -90 175 c-76 146 -88 176 -75 184 52 34 199 43 283 17 47 -15 49 -15 175
28 146 50 142 49 142 33z m1327 -305 c-3 -16 -14 -74 -24 -130 l-17 -103 -662
0 -662 0 0 88 c0 53 -6 104 -15 130 l-15 42 700 0 700 0 -5 -27z m253 -50 c0
-129 -45 -183 -153 -183 l-48 0 6 48 c7 47 33 176 40 200 3 8 28 12 80 12 l75
0 0 -77z m-2252 -38 c40 -15 71 -29 69 -32 -10 -9 -332 -83 -344 -79 -16 7
-18 124 -3 178 l10 36 98 -37 c53 -21 130 -50 170 -66z m72 15 c0 -28 -1 -28
-35 -17 -32 9 -35 14 -35 48 l0 38 35 -20 c27 -16 35 -28 35 -49z m84 -22 c31
-18 53 -35 48 -39 -4 -3 -27 -14 -51 -23 -51 -20 -74 -9 -54 23 10 15 9 20 -2
25 -16 6 -21 46 -6 46 5 0 34 -14 65 -32z m-75 -66 c10 -20 9 -23 -11 -31 -25
-9 -58 11 -58 35 0 9 39 23 56 19 1 0 7 -10 13 -23z m836 -102 c-4 -12 -34
-83 -67 -158 -67 -153 -69 -186 -15 -226 27 -20 41 -21 388 -24 307 -2 359 -5
359 -17 0 -12 -14 -15 -62 -15 -221 -1 -315 -1 -491 -1 l-199 1 -33 33 c-56
56 -55 86 5 228 69 165 87 199 106 199 11 0 13 -6 9 -20z m70 10 c15 -6 43
-24 63 -40 41 -33 81 -38 157 -19 58 15 93 5 106 -29 6 -15 18 -41 26 -58 14
-29 13 -35 -18 -108 -28 -67 -31 -81 -21 -111 l10 -35 -226 0 c-218 0 -227 1
-249 22 -33 31 -29 74 16 181 98 228 89 215 136 197z"/>
<path d="M2362 3133 c59 -2 158 -2 220 0 62 1 14 3 -107 3 -121 0 -172 -2
-113 -3z"/>
<path d="M2887 3123 c18 -2 50 -2 70 0 21 2 7 4 -32 4 -38 0 -55 -2 -38 -4z"/>
<path d="M2663 2946 c-102 -33 -201 -117 -246 -209 -102 -209 -20 -445 190
-549 64 -31 74 -33 173 -33 97 0 110 2 171 31 123 58 204 167 230 306 31 170
-64 349 -229 430 -56 28 -77 33 -156 35 -57 2 -107 -2 -133 -11z m188 -52 c73
-22 129 -56 178 -109 37 -40 91 -132 91 -155 0 -6 -38 -10 -100 -10 l-100 0 0
110 0 110 -115 0 -115 0 0 35 0 35 53 0 c29 0 78 -7 108 -16z m-181 -355 l0
-361 -27 6 c-16 4 -53 24 -83 44 -66 45 -64 34 -80 341 l-13 234 24 19 c32 26
140 78 162 78 16 0 17 -24 17 -361z m229 282 c12 -8 13 -58 8 -322 -4 -172
-11 -317 -16 -322 -5 -5 -41 -12 -80 -15 l-70 -5 -5 34 c-10 65 -46 621 -40
630 7 12 185 11 203 0z m-467 -253 c-4 -204 -4 -205 -27 -138 -24 70 -25 178
-1 248 10 28 21 52 25 52 4 0 5 -73 3 -162z m701 -3 c13 -59 -8 -168 -46 -238
-31 -59 -103 -126 -118 -110 -6 7 -39 327 -39 376 0 16 9 17 97 15 l97 -3 9
-40z"/>
<path d="M1581 2886 c-7 -8 -11 -30 -9 -48 3 -32 2 -33 -29 -30 -43 4 -70 -32
-51 -69 10 -19 20 -23 44 -21 27 3 38 -5 78 -49 35 -39 46 -58 42 -74 -3 -12
1 -31 9 -42 8 -11 11 -23 8 -27 -4 -3 8 -1 25 5 37 13 56 41 47 69 -7 21 -47
36 -65 25 -6 -4 -32 17 -58 46 -40 45 -47 58 -46 93 1 39 3 41 35 46 61 9 65
90 4 90 -12 0 -28 -6 -34 -14z m-21 -101 c20 -25 8 -50 -25 -50 -24 0 -31 5
-33 24 -6 37 34 55 58 26z m170 -180 c18 -22 3 -55 -25 -55 -29 0 -47 27 -34
52 12 22 42 23 59 3z"/>
<path d="M1188 2775 c-9 -21 -8 -28 7 -45 10 -11 28 -20 39 -20 12 0 34 -14
50 -32 l28 -33 -25 36 c-38 54 -23 68 78 72 l80 3 -82 2 c-71 2 -84 5 -93 22
-16 30 -67 27 -82 -5z m71 1 c16 -20 -3 -56 -29 -56 -26 0 -45 36 -29 56 6 8
19 14 29 14 10 0 23 -6 29 -14z"/>
<path d="M1480 2680 c-6 -11 -8 -20 -6 -20 3 0 10 9 16 20 6 11 8 20 6 20 -3
0 -10 -9 -16 -20z"/>
<path d="M1440 2615 c-22 -36 -61 -47 -88 -25 -9 7 -9 7 -3 -1 6 -7 7 -25 4
-41 -4 -18 0 -35 10 -46 8 -9 17 -30 20 -47 l4 -30 2 33 c1 37 13 41 30 10 8
-16 10 -17 6 -4 -9 30 16 75 45 79 24 4 24 4 -3 6 -38 2 -43 24 -17 66 12 19
19 35 17 35 -3 0 -15 -16 -27 -35z"/>
<path d="M1310 2636 c0 -2 8 -10 18 -17 15 -13 16 -12 3 4 -13 16 -21 21 -21
13z"/>
<path d="M1598 2563 c6 -2 18 -2 25 0 6 3 1 5 -13 5 -14 0 -19 -2 -12 -5z"/>
<path d="M1528 2553 c6 -2 18 -2 25 0 6 3 1 5 -13 5 -14 0 -19 -2 -12 -5z"/>
<path d="M1671 2441 c-17 -13 -22 -25 -20 -49 3 -26 -4 -40 -45 -81 -39 -40
-53 -48 -75 -45 -14 3 -29 11 -34 17 -6 8 -7 6 -3 -5 8 -28 -15 -21 -50 13
-26 25 -32 38 -28 58 8 39 -27 68 -61 53 -51 -23 -20 -104 33 -88 25 8 95 -64
86 -88 -8 -21 22 -56 47 -56 24 0 51 42 43 64 -9 23 93 128 117 121 27 -9 63
27 56 56 -10 38 -38 51 -66 30z m47 -13 c30 -30 -4 -77 -41 -57 -29 17 -15 69
18 69 6 0 16 -5 23 -12z m-327 -38 c25 -14 24 -46 -2 -60 -37 -20 -67 28 -37
58 15 15 15 15 39 2z m161 -154 c4 -6 8 -14 8 -18 0 -9 -30 -38 -40 -38 -5 0
-16 7 -24 16 -20 19 -20 29 -1 48 16 15 44 11 57 -8z"/>
<path d="M1430 2435 c0 -5 5 -17 10 -25 5 -8 10 -10 10 -5 0 6 -5 17 -10 25
-5 8 -10 11 -10 5z"/>
<path d="M1022 2033 l3 -68 130 -2 c183 -3 177 -6 173 70 l-3 62 -153 3 -153
3 3 -68z"/>
<path d="M1020 1875 l0 -65 155 0 156 0 -3 63 -3 62 -152 3 -153 3 0 -66z"/>
<path d="M1020 1715 l0 -65 155 0 155 0 0 65 0 65 -155 0 -155 0 0 -65z"/>
<path d="M1020 1555 l0 -65 155 0 155 0 0 65 0 65 -155 0 -155 0 0 -65z"/>
<path d="M2520 1395 l0 -65 75 0 75 0 0 65 0 65 -75 0 -75 0 0 -65z"/>
<path d="M1880 1080 c-11 -11 -20 -33 -20 -49 0 -75 104 -95 130 -25 26 67
-59 125 -110 74z m68 -12 c7 -7 12 -24 12 -38 0 -14 -5 -31 -12 -38 -18 -18
-56 -14 -68 7 -22 42 -5 81 35 81 12 0 26 -5 33 -12z"/>
<path d="M833 604 c7 -7 138 -6 145 1 3 3 -30 5 -73 5 -43 0 -75 -3 -72 -6z"/>
</g>
</svg>
